<svg width="537px" height="253px" viewBox="0 0 537 253" version="1.1" xmlns="http://www.w3.org/2000/svg" xmlns:xlink="http://www.w3.org/1999/xlink">
    <title>Kallistar</title>
    <g id="Kallistar" stroke="none" stroke-width="1" fill="none" fill-rule="evenodd">
        <polygon id="Star" fill="#2D2C29" fill-rule="nonzero" transform="translate(108.795161, 105.955229) rotate(20.000000) translate(-108.795161, -105.955229) " points="108.795161 112.288563 101.337132 116.202778 102.761489 107.912337 96.7278169 102.041014 105.066146 100.831455 108.795161 93.2885626 112.524175 100.831455 120.862505 102.041014 114.828833 107.912337 116.253189 116.202778"></polygon>
        <polygon id="Star" fill="#2D2C29" fill-rule="nonzero" transform="translate(180.152206, 59.820405) rotate(20.000000) translate(-180.152206, -59.820405) " points="180.152206 66.1537379 172.694177 70.0679532 174.118534 61.7775122 168.084862 55.9061893 176.423191 54.6966303 180.152206 47.1537379 183.88122 54.6966303 192.219549 55.9061893 186.185877 61.7775122 187.610234 70.0679532"></polygon>
        <polygon id="Star" fill="#2D2C29" fill-rule="nonzero" transform="translate(239.886156, 64.484977) rotate(20.000000) translate(-239.886156, -64.484977) " points="239.886156 70.8183103 232.428128 74.7325255 233.852485 66.4420846 227.818813 60.5707617 236.157142 59.3612027 239.886156 51.8183103 243.615171 59.3612027 251.9535 60.5707617 245.919828 66.4420846 247.344185 74.7325255"></polygon>
        <polygon id="Star" fill="#2D2C29" fill-rule="nonzero" transform="translate(310.176435, 66.769100) rotate(20.000000) translate(-310.176435, -66.769100) " points="310.176435 73.1024333 302.718407 77.0166486 304.142763 68.7262076 298.109092 62.8548847 306.447421 61.6453257 310.176435 54.1024333 313.90545 61.6453257 322.243779 62.8548847 316.210107 68.7262076 317.634464 77.0166486"></polygon>
        <polygon id="Star" fill="#2D2C29" fill-rule="nonzero" transform="translate(340.813361, 111.828185) rotate(20.000000) translate(-340.813361, -111.828185) " points="340.813361 118.161518 333.355332 122.075734 334.779689 113.785293 328.746017 107.91397 337.084346 106.704411 340.813361 99.1615182 344.542375 106.704411 352.880705 107.91397 346.847033 113.785293 348.271389 122.075734"></polygon>
        <polygon id="Star" fill="#2D2C29" fill-rule="nonzero" transform="translate(432.680264, 77.578965) rotate(20.000000) translate(-432.680264, -77.578965) " points="432.680264 83.9122983 425.222235 87.8265136 426.646592 79.5360726 420.61292 73.6647497 428.951249 72.4551907 432.680264 64.9122983 436.409278 72.4551907 444.747607 73.6647497 438.713936 79.5360726 440.138292 87.8265136"></polygon>
        <polygon id="Star" fill="#2D2C29" fill-rule="nonzero" transform="translate(421.499201, 11.892680) rotate(20.000000) translate(-421.499201, -11.892680) " points="421.499201 18.2260137 414.041172 22.140229 415.465529 13.849788 409.431857 7.97846511 417.770187 6.76890607 421.499201 -0.773986296 425.228215 6.76890607 433.566545 7.97846511 427.532873 13.849788 428.95723 22.140229"></polygon>
        <path d="M175.736,152.168 C177.549342,152.168 179.294658,152.349332 180.972,152.712 C182.649342,153.074668 184.12266,153.663996 185.392,154.48 C186.66134,155.296004 187.703996,156.33866 188.52,157.608 C189.336004,158.87734 189.744,160.373325 189.744,162.096 C189.744,164.090677 189.381337,165.767993 188.656,167.128 C187.930663,168.488007 186.956006,169.575996 185.732,170.392 C184.507994,171.208004 183.080008,171.751999 181.448,172.024 C179.815992,172.296001 178.138675,172.432 176.416,172.432 C177.141337,170.52799 177.82133,168.601343 178.456,166.652 C179.09067,164.702657 179.408,162.685344 179.408,160.6 C179.408,158.423989 178.932005,156.746673 177.98,155.568 C177.027995,154.389327 175.418678,153.8 173.152,153.8 C170.522654,153.8 167.938679,154.933322 165.4,157.2 C162.861321,159.466678 160.164014,162.299983 157.308,165.7 C154.451986,169.100017 151.278684,172.794647 147.788,176.784 C144.297316,180.773353 140.285356,184.467983 135.752,187.868 C131.218644,191.268017 126.073362,194.101322 120.316,196.368 C114.558638,198.634678 107.962704,199.768 100.528,199.768 L100.528,200.04 C104.60802,201.672008 107.622657,203.802654 109.572,206.432 C111.521343,209.061346 112.496,212.461312 112.496,216.632 C112.496,218.898678 112.065338,221.346654 111.204,223.976 C110.342662,226.605346 109.390672,229.166654 108.348,231.66 C107.305328,234.153346 106.353338,236.510656 105.492,238.732 C104.630662,240.953344 104.2,242.834659 104.2,244.376 C104.2,247.277348 105.333322,248.728 107.6,248.728 C108.597338,248.728 110.002658,248.320004 111.816,247.504 C113.629342,246.687996 115.782654,245.396009 118.276,243.628 C120.769346,241.859991 123.557318,239.570681 126.64,236.76 C127.751485,235.746587 129.833173,233.530918 132.885062,230.112993 C133.494233,227.749792 134.449991,225.386906 135.752,223.024 C138.200012,218.581311 141.282648,214.569351 145,210.988 C148.717352,207.406649 152.86531,204.505344 157.444,202.284 C162.02269,200.062656 166.397312,198.952 170.568,198.952 C173.741349,198.952 176.234658,199.631993 178.048,200.992 C179.861342,202.352007 181.357327,204.482652 182.536,207.384 L185.936,201.944 L200.08,201.128 C199.263996,202.760008 198.085341,204.731988 196.544,207.044 C195.002659,209.356012 193.325342,211.84932 191.512,214.524 C189.698658,217.19868 187.862676,219.963986 186.004,222.82 C184.145324,225.676014 182.445341,228.44132 180.904,231.116 C179.362659,233.79068 178.116005,236.283988 177.164,238.596 C176.211995,240.908012 175.736,242.879992 175.736,244.512 C175.736,246.778678 176.869322,247.912 179.136,247.912 C181.312011,247.912 184.258648,246.642679 187.976,244.104 C191.693352,241.565321 195.59198,238.210688 199.672,234.04 C201.394675,232.317325 203.139991,230.458677 204.908,228.464 C205.331846,227.985815 205.751782,227.508934 206.16781,227.033357 C207.7394,224.150902 209.654729,220.819616 211.912,217.04 L249.856,154.752 L264.952,153.936 L222.928,220.848 C219.391982,226.560029 216.581344,231.297315 214.496,235.06 C212.410656,238.822685 211.368,241.882655 211.368,244.24 C211.368,246.688012 212.365323,247.912 214.36,247.912 C216.26401,247.912 218.847984,246.869344 222.112,244.784 C225.376016,242.698656 228.866648,239.797352 232.584,236.08 C235.738386,232.925614 238.85473,229.581274 241.933109,226.046897 C243.39799,223.396876 245.132276,220.395073 247.136,217.04 L285.08,154.752 L300.176,153.936 L258.152,220.848 C254.615982,226.560029 251.805344,231.297315 249.72,235.06 C247.634656,238.822685 246.592,241.882655 246.592,244.24 C246.592,246.688012 247.589323,247.912 249.584,247.912 C251.48801,247.912 254.071984,246.869344 257.336,244.784 C260.600016,242.698656 264.090648,239.797352 267.808,236.08 C270.973349,232.914651 274.100391,229.558026 277.189204,226.010039 C278.584005,223.633833 280.26255,220.893629 282.224,217.788 C284.944014,213.481312 288.34398,208.154698 292.424,201.808 L306.432,201.128 C302.170645,207.837367 298.498682,213.571976 295.416,218.332 C292.333318,223.092024 289.817343,227.149317 287.868,230.504 C285.918657,233.858683 284.468005,236.601323 283.516,238.732 C282.563995,240.862677 282.088,242.607993 282.088,243.968 C282.088,245.056005 282.291998,245.939997 282.7,246.62 C283.108002,247.300003 283.719996,247.64 284.536,247.64 C286.349342,247.64 288.91065,246.597344 292.22,244.512 C294.55797,243.038759 297.314493,240.818879 300.489615,237.852323 C300.461483,237.452876 300.448,237.043562 300.448,236.624 C300.448,235.173326 300.651998,233.722674 301.06,232.272 C301.468002,230.821326 302.079996,229.506673 302.896,228.328 C303.712004,227.149327 304.731994,226.174671 305.956,225.404 C307.180006,224.633329 308.607992,224.248 310.24,224.248 C311.335532,224.248 312.299686,224.410649 313.132467,224.73595 C314.081797,223.692849 314.998681,222.668957 315.884,221.664 C317.341782,220.009221 318.662577,218.49143 319.846417,217.110594 C319.606689,216.205018 319.488,215.274381 319.488,214.32 C319.488,211.781321 320.077327,209.56001 321.256,207.656 C322.434673,205.75199 323.97599,204.142673 325.88,202.828 C327.78401,201.513327 329.914655,200.53867 332.272,199.904 C334.629345,199.26933 337.031988,198.952 339.48,198.952 C343.832022,198.952 347.481319,199.881324 350.428,201.74 C353.374681,203.598676 354.848,206.250649 354.848,209.696 C354.848,212.325346 353.986675,214.478658 352.264,216.156 C350.541325,217.833342 348.365346,218.672 345.736,218.672 C344.919996,218.672 344.172003,218.604001 343.492,218.468 C342.811997,218.331999 342.245336,218.173334 341.792,217.992 C342.789338,216.178658 343.491998,214.388009 343.9,212.62 C344.308002,210.851991 344.512,209.106675 344.512,207.384 C344.512,205.570658 343.990672,203.984007 342.948,202.624 C341.905328,201.263993 340.341344,200.584 338.256,200.584 C335.717321,200.584 333.768007,201.377325 332.408,202.964 C331.047993,204.550675 330.368,206.522655 330.368,208.88 C330.368,211.418679 330.934661,213.662657 332.068,215.612 C333.201339,217.561343 334.448,219.442658 335.808,221.256 C337.168007,223.069342 338.414661,224.973323 339.548,226.968 C340.681339,228.962677 341.248,231.319986 341.248,234.04 C341.248,235.762675 340.953336,237.439992 340.364,239.072 C339.774664,240.704008 338.981338,242.15466 337.984,243.424 C336.986662,244.69334 335.876006,245.758662 334.652,246.62 C333.427994,247.481338 332.136007,248.047999 330.776,248.32 L330.776,248.592 C335.400023,247.594662 339.68398,245.894679 343.628,243.492 C347.57202,241.089321 351.266649,238.278683 354.712,235.06 C356.470932,233.416787 358.176681,231.702696 359.829262,229.917711 C360.469287,228.668321 361.189324,227.367605 361.988,226.016 C363.756009,223.023985 365.818655,219.714685 368.176,216.088 C370.533345,212.461315 373.071986,208.29069 375.792,203.576 L365.592,203.576 L366.544,201.128 L377.016,201.128 L387.216,183.992 L401.904,183.448 L390.616,201.128 L407.888,201.128 L406.664,203.576 L389.12,203.576 C385.03998,210.285367 381.594681,215.92931 378.784,220.508 C375.973319,225.08669 373.729342,228.894651 372.052,231.932 C370.374658,234.969349 369.150671,237.394658 368.38,239.208 C367.609329,241.021342 367.224,242.607993 367.224,243.968 C367.224,245.146673 367.54133,246.098663 368.176,246.824 C368.81067,247.549337 369.717327,247.912 370.896,247.912 C373.162678,247.912 376.154648,246.756012 379.872,244.444 C383.589352,242.131988 387.578645,238.93602 391.84,234.856 C393.669382,233.026618 395.606885,230.999001 397.65253,228.773126 C398.251945,226.856465 399.080113,224.940239 400.136,223.024 C402.584012,218.581311 405.666648,214.569351 409.384,210.988 C413.101352,207.406649 417.24931,204.505344 421.828,202.284 C426.40669,200.062656 430.781312,198.952 434.952,198.952 C438.125349,198.952 440.618658,199.631993 442.432,200.992 C444.245342,202.352007 445.741327,204.482652 446.92,207.384 L450.32,201.944 L464.464,201.128 C463.647996,202.760008 462.469341,204.731988 460.928,207.044 C459.386659,209.356012 457.709342,211.84932 455.896,214.524 C454.082658,217.19868 452.246676,219.963986 450.388,222.82 C448.529324,225.676014 446.829341,228.44132 445.288,231.116 C443.746659,233.79068 442.500005,236.283988 441.548,238.596 C440.595995,240.908012 440.12,242.879992 440.12,244.512 C440.12,246.778678 441.253322,247.912 443.52,247.912 C445.696011,247.912 448.642648,246.642679 452.36,244.104 C456.077352,241.565321 459.97598,238.210688 464.056,234.04 C464.823623,233.272377 465.595742,232.477755 466.372361,231.656129 C467.656644,229.499336 468.947798,227.347992 470.244,225.2 C475.004024,217.311961 479.74131,209.288041 484.456,201.128 L499.96,200.584 L482.008,225.88 L482.28,226.152 C485.725351,221.890645 488.78532,218.468013 491.46,215.884 C494.13468,213.299987 496.469323,211.192008 498.464,209.56 C500.458677,207.927992 502.135993,206.681338 503.496,205.82 C504.856007,204.958662 505.85333,204.21067 506.488,203.576 C507.485338,202.578662 508.414662,201.785336 509.276,201.196 C510.137338,200.606664 511.157327,200.153335 512.336,199.836 C513.514673,199.518665 514.942658,199.314667 516.62,199.224 C518.297342,199.133333 520.405321,199.042667 522.944,198.952 C521.221325,201.400012 519.634674,203.96132 518.184,206.636 C516.733326,209.31068 516.008,212.189318 516.008,215.272 C516.008,219.170686 517.957314,221.12 521.856,221.12 C523.12534,221.12 524.371994,220.848003 525.596,220.304 C526.820006,219.759997 527.975995,219.080004 529.064,218.264 C530.152005,217.447996 531.194662,216.564005 532.192,215.612 C533.189338,214.659995 534.095996,213.776004 534.912,212.96 L535.456,213.64 C532.917321,216.813349 529.925351,219.397323 526.48,221.392 C523.034649,223.386677 519.27202,224.384 515.192,224.384 C511.565315,224.384 508.709344,223.43201 506.624,221.528 C504.538656,219.62399 503.496,216.813352 503.496,213.096 C503.496,210.738655 504.175993,208.517344 505.536,206.432 L505.264,206.16 C501.455981,208.698679 497.829351,211.645317 494.384,215 C490.938649,218.354683 487.742681,221.890648 484.796,225.608 C481.849319,229.325352 479.129346,233.15598 476.636,237.1 C474.142654,241.04402 471.898677,244.874648 469.904,248.592 L456.168,249 C458.524309,244.934212 460.898257,240.880227 463.289864,236.838013 L463.784,236.352 C459.431978,240.704022 455.148021,244.262653 450.932,247.028 C446.715979,249.793347 442.522688,251.176 438.352,251.176 C435.450652,251.176 433.206675,250.428007 431.62,248.932 C430.033325,247.435993 429.24,245.600011 429.24,243.424 C429.24,242.698663 429.285333,242.01867 429.376,241.384 C429.466667,240.74933 429.602666,240.250668 429.784,239.888 L429.512,239.888 C426.701319,243.061349 423.528018,245.735989 419.992,247.912 C416.455982,250.088011 412.64802,251.176 408.568,251.176 C406.391989,251.176 404.533341,250.768004 402.992,249.952 C401.450659,249.135996 400.204005,248.02534 399.252,246.62 C398.299995,245.21466 397.597336,243.628009 397.144,241.86 C396.690664,240.091991 396.464,238.25601 396.464,236.352 C396.464,234.693569 396.634561,233.035148 396.975685,231.376729 C395.841584,232.586368 394.672566,233.791434 393.472,234.992 C391.386656,237.077344 389.233344,239.049324 387.012,240.908 C384.790656,242.766676 382.546678,244.39866 380.28,245.804 C378.013322,247.20934 375.792011,248.319996 373.616,249.136 C371.439989,249.952004 369.309344,250.36 367.224,250.36 C364.322652,250.36 361.784011,249.702673 359.608,248.388 C357.431989,247.073327 356.344,244.784016 356.344,241.52 C356.344,239.162655 356.842662,236.737346 357.84,234.244 L357.861959,234.188043 C355.87712,236.173242 353.807139,238.027889 351.652,239.752 C347.345312,243.197351 342.630692,245.962656 337.508,248.048 C332.385308,250.133344 326.5147,251.176 319.896,251.176 C317.538655,251.176 315.204012,250.926669 312.892,250.428 C310.579988,249.929331 308.494676,249.113339 306.636,247.98 C304.777324,246.846661 303.281339,245.350676 302.148,243.492 C301.492958,242.417731 301.027218,241.199607 300.750777,239.837614 C297.076928,243.199246 293.825056,245.664089 290.996,247.232 C287.233315,249.317344 283.765349,250.36 280.592,250.36 C277.599985,250.36 275.288008,249.544008 273.656,247.912 C272.023992,246.279992 271.208,244.149346 271.208,241.52 C271.208,239.706658 271.547997,237.825343 272.228,235.876 C272.637666,234.701623 273.220088,233.354497 273.975274,231.834606 C273.137763,232.751215 272.305633,233.622367 271.48,234.448 C266.221307,239.79736 261.574687,243.786654 257.54,246.416 C253.505313,249.045346 249.312022,250.36 244.96,250.36 C238.794636,250.36 235.712,247.640027 235.712,242.2 C235.712,239.661321 236.641324,236.465353 238.5,232.612 C238.669524,232.260548 238.847533,231.897972 239.034026,231.524271 C238.100502,232.555232 237.174233,233.529767 236.256,234.448 C230.997307,239.79736 226.350687,243.786654 222.316,246.416 C218.281313,249.045346 214.088022,250.36 209.736,250.36 C203.570636,250.36 200.488,247.640027 200.488,242.2 C200.488,239.661321 201.417324,236.465353 203.276,232.612 C203.357604,232.442821 203.441174,232.271063 203.526711,232.096728 C202.223132,233.486292 200.846632,234.905368 199.4,236.352 C195.047978,240.704022 190.764021,244.262653 186.548,247.028 C182.331979,249.793347 178.138688,251.176 173.968,251.176 C171.066652,251.176 168.822675,250.428007 167.236,248.932 C165.649325,247.435993 164.856,245.600011 164.856,243.424 C164.856,242.698663 164.901333,242.01867 164.992,241.384 C165.082667,240.74933 165.218666,240.250668 165.4,239.888 L165.128,239.888 C162.317319,243.061349 159.144018,245.735989 155.608,247.912 C152.071982,250.088011 148.26402,251.176 144.184,251.176 C142.007989,251.176 140.149341,250.768004 138.608,249.952 C137.066659,249.135996 135.820005,248.02534 134.868,246.62 C133.915995,245.21466 133.213336,243.628009 132.76,241.86 C132.306664,240.091991 132.08,238.25601 132.08,236.352 C132.08,235.367146 132.140149,234.382296 132.260448,233.397447 C131.011253,234.796918 129.955339,235.949787 129.292,236.624 C126.526653,239.434681 123.693348,241.927989 120.792,244.104 C117.890652,246.280011 114.966681,248.025327 112.02,249.34 C109.073319,250.654673 106.240014,251.266667 103.52,251.176 C100.346651,251.176 97.7626766,250.15601 95.768,248.116 C93.7733234,246.07599 92.776,243.514682 92.776,240.432 C92.776,237.530652 93.3879939,234.652014 94.612,231.796 C95.8360061,228.939986 97.218659,226.061348 98.76,223.16 C100.210674,220.349319 101.547994,217.652013 102.772,215.068 C103.996006,212.483987 104.608,210.149344 104.608,208.064 C104.608,205.162652 103.90534,203.100006 102.5,201.876 C101.09466,200.651994 99.0773465,200.04 96.448,200.04 C95.9946644,200.04 95.4960027,200.085333 94.952,200.176 C94.4079973,200.266667 93.8640027,200.312 93.32,200.312 C93.0479986,200.312 92.708002,200.289334 92.3,200.244 C91.891998,200.198666 91.688,199.949336 91.688,199.496 C91.688,199.042664 91.9826637,198.725334 92.572,198.544 C93.1613363,198.362666 93.6826644,198.272 94.136,198.272 C95.1333383,198.272 96.1079952,198.339999 97.06,198.476 C98.0120048,198.612001 98.9866617,198.68 99.984,198.68 C104.517356,198.68 108.665315,197.524012 112.428,195.212 C116.190685,192.899988 119.839982,190.021351 123.376,186.576 C126.912018,183.130649 130.470649,179.413353 134.052,175.424 C137.633351,171.434647 141.46398,167.717351 145.544,164.272 C149.62402,160.826649 154.134642,157.948012 159.076,155.636 C164.017358,153.323988 169.570636,152.168 175.736,152.168 Z M142.688,150.808 C143.413337,150.808 144.229329,150.898666 145.136,151.08 C146.042671,151.261334 146.496,151.66933 146.496,152.304 C146.496,153.210671 146.042671,153.822665 145.136,154.14 C144.229329,154.457335 143.368004,154.616 142.552,154.616 C140.375989,154.616 138.26801,154.525334 136.228,154.344 C134.18799,154.162666 132.397341,153.981334 130.856,153.8 C129.405326,154.072001 127.274681,154.865327 124.464,156.18 C121.653319,157.494673 119.114678,159.10399 116.848,161.008 C112.223977,164.997353 108.25735,169.054646 104.948,173.18 C101.63865,177.305354 98.6240136,181.611978 95.904,186.1 C93.1839864,190.588022 90.5093465,195.302642 87.88,200.244 C85.2506535,205.185358 82.3040163,210.421306 79.04,215.952 C76.5013206,220.213355 73.5773499,224.406646 70.268,228.532 C66.9586501,232.657354 63.1506882,236.329317 58.844,239.548 C54.5373118,242.766683 49.6640272,245.373323 44.224,247.368 C38.7839728,249.362677 32.664034,250.36 25.864,250.36 C23.1439864,250.36 20.3560143,250.088003 17.5,249.544 C14.6439857,248.999997 12.0146787,248.048007 9.612,246.688 C7.20932132,245.327993 5.23734104,243.537344 3.696,241.316 C2.15465896,239.094656 1.384,236.352016 1.384,233.088 C1.384,230.639988 2.0639932,228.39601 3.424,226.356 C4.7840068,224.31599 6.8239864,223.296 9.544,223.296 C11.4480095,223.296 13.0799932,223.953327 14.44,225.268 C15.8000068,226.582673 16.48,228.19199 16.48,230.096 C16.48,231.818675 15.9813383,233.133329 14.984,234.04 C13.9866617,234.946671 12.717341,235.535999 11.176,235.808 C11.2666671,240.613357 12.4906549,243.96799 14.848,245.872 C17.2053451,247.77601 20.6053111,248.728 25.048,248.728 C29.581356,248.728 33.7746474,247.821342 37.628,246.008 C41.4813526,244.194658 45.0173172,241.769349 48.236,238.732 C51.4546828,235.694651 54.4466528,232.272019 57.212,228.464 C59.9773472,224.655981 62.5159884,220.757353 64.828,216.768 C67.1400116,212.778647 69.2933234,208.880019 71.288,205.072 C73.2826766,201.263981 75.1866576,197.909348 77,195.008 C80.4453506,189.386639 83.7546508,184.490688 86.928,180.32 C90.1013492,176.149312 93.6146474,172.454683 97.468,169.236 C101.321353,166.017317 105.673309,163.161346 110.524,160.668 C115.374691,158.174654 121.154633,155.794678 127.864,153.528 L127.864,153.256 C123.511978,153.256 118.298697,153.414665 112.224,153.732 C106.149303,154.049335 99.8253662,154.661329 93.252,155.568 C86.6786338,156.474671 80.1506991,157.766658 73.668,159.444 C67.1853009,161.121342 61.3826923,163.342653 56.26,166.108 C51.1373077,168.873347 46.9893492,172.273313 43.816,176.308 C40.6426508,180.342687 39.056,185.125306 39.056,190.656 C39.056,194.464019 40.1213227,197.614654 42.252,200.108 C44.3826773,202.601346 47.351981,203.848 51.16,203.848 C53.6986794,203.848 56.101322,203.281339 58.368,202.148 C60.634678,201.014661 62.6519912,199.518676 64.42,197.66 C66.1880088,195.801324 67.5933281,193.716012 68.636,191.404 C69.6786719,189.091988 70.2,186.757345 70.2,184.4 C70.2,183.039993 70.0186685,181.72534 69.656,180.456 C69.2933315,179.18666 68.7946698,177.91734 68.16,176.648 L69.52,176.104 C69.9733356,177.101338 70.4719973,178.30266 71.016,179.708 C71.5600027,181.11334 71.832,182.76799 71.832,184.672 C71.832,187.936016 71.1066739,190.950653 69.656,193.716 C68.2053261,196.481347 66.2560122,198.861323 63.808,200.856 C61.3599878,202.850677 58.5493492,204.391995 55.376,205.48 C52.2026508,206.568005 48.9386834,207.112 45.584,207.112 C43.0453206,207.112 40.6880109,206.704004 38.512,205.888 C36.3359891,205.071996 34.4320082,203.916007 32.8,202.42 C31.1679918,200.923993 29.8986712,199.110677 28.992,196.98 C28.0853288,194.849323 27.632,192.469346 27.632,189.84 C27.632,184.309306 29.3999823,179.526687 32.936,175.492 C36.4720177,171.457313 41.0506386,168.034681 46.672,165.224 C52.2933614,162.413319 58.6172982,160.124009 65.644,158.356 C72.6707018,156.587991 79.6746318,155.205338 86.656,154.208 C93.6373682,153.210662 100.278635,152.530668 106.58,152.168 C112.881365,151.805332 118.07198,151.624 122.152,151.624 C127.229359,151.624 131.558649,151.488001 135.14,151.216 C138.721351,150.943999 141.237326,150.808 142.688,150.808 Z M320.495,218.935 L320.78,218.604 C319.193325,220.462676 317.493342,222.41199 315.68,224.452 L314.637228,225.615303 C314.78774,225.740298 314.931331,225.873864 315.068,226.016 C316.201339,227.194673 316.768,228.554659 316.768,230.096 C316.768,232.00001 316.224005,233.450662 315.136,234.448 C314.047995,235.445338 312.778674,235.944 311.328,235.944 C310.149327,235.944 309.152004,235.717336 308.336,235.264 C307.882664,236.080004 307.497335,236.963995 307.18,237.916 C306.862665,238.868005 306.704,239.842662 306.704,240.84 C306.704,243.378679 307.678657,245.463992 309.628,247.096 C311.577343,248.728008 313.866654,249.544 316.496,249.544 C318.128008,249.544 319.782658,249.272003 321.46,248.728 C323.137342,248.183997 324.633327,247.390672 325.948,246.348 C327.262673,245.305328 328.327996,244.058674 329.144,242.608 C329.960004,241.157326 330.368,239.570675 330.368,237.848 C330.368,235.490655 329.801339,233.337343 328.668,231.388 C327.534661,229.438657 326.288007,227.557342 324.928,225.744 C323.567993,223.930658 322.321339,222.094676 321.188,220.236 C321.014147,219.950882 320.85363,219.663098 320.706446,219.372647 L320.495,218.935 Z M415.715883,217.737301 C408.812323,229.694617 407.480943,241.85037 412.742162,244.887936 C418.003381,247.925503 427.864882,240.694617 434.768442,228.737301 C441.672001,216.779986 443.003381,204.624232 437.742162,201.586666 C432.480943,198.5491 422.619442,205.779986 415.715883,217.737301 Z M152.269721,217.709365 C145.366161,229.66668 144.034781,241.822434 149.296,244.86 C154.557219,247.897566 164.41872,240.66668 171.322279,228.709365 C178.225839,216.752049 179.557219,204.596296 174.296,201.55873 C169.034781,198.521164 159.17328,205.752049 152.269721,217.709365 Z M314.32,170.936 C316.042675,170.936 317.561327,171.57066 318.876,172.84 C320.190673,174.10934 320.848,175.605325 320.848,177.328 C320.848,179.141342 320.122674,180.795993 318.672,182.292 C317.221326,183.788007 315.589342,184.536 313.776,184.536 C311.781323,184.536 310.058674,184.014672 308.608,182.972 C307.157326,181.929328 306.432,180.365344 306.432,178.28 C306.432,176.194656 307.225325,174.44934 308.812,173.044 C310.398675,171.63866 312.234656,170.936 314.32,170.936 Z" stroke="#979797" fill="#4D4C4B"></path>
    </g>
</svg>